<?xml version="1.0" encoding="UTF-8" standalone="no"?>
<!-- Generator: Gravit.io -->
<svg xmlns="http://www.w3.org/2000/svg" xmlns:xlink="http://www.w3.org/1999/xlink" style="isolation:isolate" viewBox="1095.991 3412.503 150.036 156.77" width="150.036pt" height="156.77pt"><path d=" M 1098.764 3412.503 C 1097.133 3412.813 1095.962 3414.253 1095.992 3415.913 L 1095.992 3426.142 C 1095.998 3427.018 1096.341 3427.858 1096.95 3428.488 L 1150.546 3485.385 L 1150.546 3545.48 C 1150.574 3546.667 1151.228 3547.758 1152.251 3548.358 L 1186.348 3568.816 C 1187.391 3569.419 1188.675 3569.426 1189.726 3568.835 C 1190.776 3568.244 1191.436 3567.143 1191.462 3565.938 L 1191.462 3485.385 L 1244.527 3429.019 L 1244.629 3428.91 L 1245.059 3428.484 C 1245.219 3428.322 1245.362 3428.144 1245.485 3427.952 C 1245.562 3427.888 1245.633 3427.818 1245.697 3427.741 C 1245.898 3427.298 1246.004 3426.834 1246.017 3426.353 L 1246.017 3426.142 C 1246.031 3425.971 1246.031 3425.784 1246.017 3425.61 L 1246.017 3415.913 C 1246.017 3414.037 1244.483 3412.503 1242.607 3412.503 L 1098.76 3412.503 L 1098.764 3412.503 Z  M 1102.811 3419.322 L 1239.198 3419.322 L 1239.198 3424.863 L 1186.559 3480.696 L 1155.446 3480.696 L 1141.929 3466.358 L 1102.811 3424.863 L 1102.811 3419.322 Z  M 1157.366 3487.516 L 1184.643 3487.516 L 1184.643 3559.971 L 1157.366 3543.67 L 1157.366 3487.516 Z " fill="rgb(250,250,250)"/></svg>