<?xml version="1.0" encoding="UTF-8" standalone="no"?>
<!-- Generator: Gravit.io -->
<svg xmlns="http://www.w3.org/2000/svg" xmlns:xlink="http://www.w3.org/1999/xlink" style="isolation:isolate" viewBox="497.5 308.5 321 118.527" width="321pt" height="118.527pt"><g><path d="M 517.338 310 L 798.662 310 C 808.783 310 817 318.217 817 328.338 L 817 407.189 C 817 417.31 808.783 425.527 798.662 425.527 L 517.338 425.527 C 507.217 425.527 499 417.31 499 407.189 L 499 328.338 C 499 318.217 507.217 310 517.338 310 Z" style="stroke:none;fill:#FAFAFA;stroke-miterlimit:10;"/><path d="M 517.338 310 L 798.662 310 C 808.783 310 817 318.217 817 328.338 L 817 407.189 C 817 417.31 808.783 425.527 798.662 425.527 L 517.338 425.527 C 507.217 425.527 499 417.31 499 407.189 L 499 328.338 C 499 318.217 507.217 310 517.338 310 Z" style="fill:none;stroke:#34495E;stroke-width:3;stroke-linecap:square;stroke-miterlimit:2;"/><line x1="740.585" y1="310" x2="740.585" y2="425.527" vector-effect="non-scaling-stroke" stroke-width="3" stroke="rgb(52,73,94)" stroke-linejoin="miter" stroke-linecap="round" stroke-miterlimit="3"/><path d=" M 731.25 313.226 C 728.081 311.185 724.31 310 720.264 310 L 700.126 310 L 700.126 310 L 654.435 425.527 L 686.834 425.527 L 731.25 313.226 Z  M 740.585 349.309 L 740.585 405.206 C 740.585 416.421 731.48 425.527 720.264 425.527 L 710.441 425.527 L 740.585 349.309 Z  M 676.52 310 L 643.288 310 L 643.288 310 L 597.596 425.527 L 630.828 425.527 L 676.52 310 L 676.52 310 Z  M 619.681 310 L 582.419 310 L 582.419 310 L 536.727 425.527 L 573.99 425.527 L 619.681 310 L 619.681 310 L 619.681 310 Z  M 558.812 310 L 519.321 310 C 508.105 310 499 319.105 499 330.321 L 499 405.206 C 499 414.384 505.098 422.15 513.461 424.668 L 558.812 310 L 558.812 310 L 558.812 310 L 558.812 310 Z " fill-rule="evenodd" fill="rgb(52,73,94)"/><rect x="726" y="407.833" width="15" height="17.658" transform="matrix(1,0,0,1,0,0)" fill="rgb(52,73,94)"/></g></svg>