<?xml version="1.0" encoding="UTF-8" standalone="no"?>
<!-- Generator: Gravit.io -->
<svg xmlns="http://www.w3.org/2000/svg" xmlns:xlink="http://www.w3.org/1999/xlink" style="isolation:isolate" viewBox="626.411 3412.503 159.178 124.494" width="159.178pt" height="124.494pt"><path d=" M 643.702 3412.503 C 645.612 3412.503 647.16 3414.051 647.16 3415.961 L 647.16 3429.794 C 647.16 3431.704 645.612 3433.252 643.702 3433.252 L 629.869 3433.252 C 627.96 3433.252 626.411 3431.704 626.411 3429.794 L 626.411 3415.961 C 626.411 3414.051 627.96 3412.503 629.869 3412.503 L 643.702 3412.503 Z  M 778.571 3415.961 C 781.065 3415.919 783.387 3417.232 784.636 3419.392 C 785.906 3421.542 785.906 3424.213 784.636 3426.363 C 783.387 3428.523 781.065 3429.836 778.571 3429.794 L 667.909 3429.794 C 665.415 3429.836 663.093 3428.523 661.844 3426.363 C 660.573 3424.213 660.573 3421.542 661.844 3419.392 C 663.093 3417.232 665.415 3415.919 667.909 3415.961 L 778.571 3415.961 Z  M 643.702 3447.085 C 645.612 3447.085 647.16 3448.633 647.16 3450.543 L 647.16 3464.376 C 647.16 3466.285 645.612 3467.834 643.702 3467.834 L 629.869 3467.834 C 627.96 3467.834 626.411 3466.285 626.411 3464.376 L 626.411 3450.543 C 626.411 3448.633 627.96 3447.085 629.869 3447.085 L 643.702 3447.085 Z  M 778.571 3450.543 C 781.065 3450.501 783.387 3451.814 784.636 3453.973 C 785.906 3456.124 785.906 3458.795 784.636 3460.945 C 783.387 3463.104 781.065 3464.417 778.571 3464.376 L 667.909 3464.376 C 665.415 3464.417 663.093 3463.104 661.844 3460.945 C 660.573 3458.795 660.573 3456.124 661.844 3453.973 C 663.093 3451.814 665.415 3450.501 667.909 3450.543 L 778.571 3450.543 Z  M 643.702 3481.666 C 645.604 3481.666 647.16 3483.223 647.16 3485.124 L 647.16 3498.957 C 647.16 3500.859 645.604 3502.415 643.702 3502.415 L 629.869 3502.415 C 627.967 3502.415 626.411 3500.859 626.411 3498.957 L 626.411 3485.124 C 626.411 3483.223 627.967 3481.666 629.869 3481.666 L 643.702 3481.666 Z  M 778.571 3485.124 C 781.065 3485.083 783.387 3486.396 784.636 3488.555 C 785.906 3490.705 785.906 3493.376 784.636 3495.527 C 783.387 3497.686 781.065 3498.999 778.571 3498.957 L 667.909 3498.957 C 665.415 3498.999 663.093 3497.686 661.844 3495.527 C 660.573 3493.376 660.573 3490.705 661.844 3488.555 C 663.093 3486.396 665.415 3485.083 667.909 3485.124 L 778.571 3485.124 Z  M 643.702 3516.248 C 645.604 3516.248 647.16 3517.804 647.16 3519.706 L 647.16 3533.539 C 647.16 3535.441 645.604 3536.997 643.702 3536.997 L 629.869 3536.997 C 627.967 3536.997 626.411 3535.441 626.411 3533.539 L 626.411 3519.706 C 626.411 3517.804 627.967 3516.248 629.869 3516.248 L 643.702 3516.248 Z  M 778.571 3519.706 C 781.065 3519.664 783.387 3520.977 784.636 3523.137 C 785.906 3525.287 785.906 3527.958 784.636 3530.108 C 783.387 3532.268 781.065 3533.581 778.571 3533.539 L 667.909 3533.539 C 665.415 3533.581 663.093 3532.268 661.844 3530.108 C 660.573 3527.958 660.573 3525.287 661.844 3523.137 C 663.093 3520.977 665.415 3519.664 667.909 3519.706 L 778.571 3519.706 Z " fill="rgb(250,250,250)"/></svg>