<?xml version="1.0" encoding="UTF-8" standalone="no"?>
<!-- Generator: Gravit.io -->
<svg xmlns="http://www.w3.org/2000/svg" xmlns:xlink="http://www.w3.org/1999/xlink" style="isolation:isolate" viewBox="1024 2204.5 212 212" width="212pt" height="212pt"><path d=" M 1085.833 2204.5 C 1077.398 2204.5 1069.236 2205.913 1061.542 2209.297 C 1060.049 2209.891 1059.003 2211.256 1058.817 2212.852 C 1058.607 2214.448 1059.297 2216.028 1060.61 2216.959 C 1061.911 2217.906 1063.627 2218.064 1065.079 2217.37 C 1071.515 2214.557 1078.378 2213.333 1085.833 2213.333 C 1115.266 2213.333 1138.833 2236.901 1138.833 2266.333 C 1138.833 2295.766 1115.266 2319.333 1085.833 2319.333 C 1056.401 2319.333 1032.833 2295.766 1032.833 2266.333 C 1032.833 2252.907 1037.974 2240.902 1046.083 2231.38 L 1046.083 2242.921 C 1046.066 2244.511 1046.896 2245.995 1048.274 2246.807 C 1049.656 2247.598 1051.344 2247.598 1052.726 2246.807 C 1054.104 2245.995 1054.934 2244.511 1054.917 2242.921 L 1054.917 2217.75 L 1029.742 2217.75 C 1028.15 2217.733 1026.671 2218.569 1025.864 2219.941 C 1025.07 2221.319 1025.07 2223.015 1025.864 2224.393 C 1026.672 2225.771 1028.161 2226.601 1029.746 2226.583 L 1038.544 2226.583 C 1029.675 2237.404 1024 2251.118 1024 2266.333 C 1023.982 2282.516 1030.327 2298.057 1041.667 2309.603 L 1041.667 2407.667 C 1041.667 2412.545 1045.622 2416.5 1050.5 2416.5 L 1227.167 2416.5 C 1232.045 2416.5 1236 2412.545 1236 2407.667 L 1236 2270.75 L 1147.459 2270.75 C 1147.578 2269.284 1147.667 2267.817 1147.667 2266.333 C 1147.667 2264.849 1147.547 2263.383 1147.446 2261.917 L 1236 2261.917 L 1236 2231 C 1236 2225.877 1232.29 2222.167 1227.167 2222.167 L 1205.083 2222.167 L 1205.083 2213.333 C 1205.083 2208.502 1201.082 2204.5 1196.25 2204.5 L 1187.417 2204.5 C 1182.585 2204.5 1178.583 2208.502 1178.583 2213.333 L 1178.583 2222.167 L 1129.103 2222.167 C 1117.557 2210.827 1102.016 2204.482 1085.833 2204.5 Z  M 1187.417 2213.333 L 1196.25 2213.333 L 1196.25 2239.833 L 1187.417 2239.833 L 1187.417 2213.333 Z  M 1085.763 2226.513 C 1083.334 2226.566 1081.381 2228.566 1081.417 2231 L 1081.417 2265.627 C 1081.272 2266.575 1081.443 2267.545 1081.903 2268.387 C 1082.3 2269.182 1082.936 2269.836 1083.713 2270.269 L 1100.859 2283.121 C 1101.795 2283.827 1102.975 2284.129 1104.135 2283.961 C 1105.296 2283.793 1106.341 2283.167 1107.038 2282.225 C 1107.744 2281.288 1108.046 2280.109 1107.878 2278.948 C 1107.709 2277.788 1107.084 2276.743 1106.141 2276.046 L 1090.25 2264.125 L 1090.25 2231 C 1090.266 2229.805 1089.798 2228.655 1088.953 2227.81 C 1088.108 2226.965 1086.958 2226.497 1085.763 2226.513 Z  M 1143.25 2297.25 L 1165.333 2297.25 L 1165.333 2319.333 L 1143.25 2319.333 L 1143.25 2297.25 Z  M 1174.167 2297.25 L 1196.25 2297.25 L 1196.25 2319.333 L 1174.167 2319.333 L 1174.167 2297.25 Z  M 1134.417 2304.515 L 1134.417 2304.825 L 1133.798 2305.341 C 1134.019 2305.081 1134.209 2304.789 1134.417 2304.515 Z  M 1081.417 2328.167 L 1103.5 2328.167 L 1103.5 2350.25 L 1081.417 2350.25 L 1081.417 2328.167 Z  M 1112.333 2328.167 L 1134.417 2328.167 L 1134.417 2350.25 L 1112.333 2350.25 L 1112.333 2328.167 Z  M 1143.25 2328.167 L 1165.333 2328.167 L 1165.333 2350.25 L 1143.25 2350.25 L 1143.25 2328.167 Z  M 1174.167 2328.167 L 1196.25 2328.167 L 1196.25 2350.25 L 1174.167 2350.25 L 1174.167 2328.167 Z  M 1081.417 2359.083 L 1103.5 2359.083 L 1103.5 2381.167 L 1081.417 2381.167 L 1081.417 2359.083 Z  M 1112.333 2359.083 L 1134.417 2359.083 L 1134.417 2381.167 L 1112.333 2381.167 L 1112.333 2359.083 Z  M 1143.25 2359.083 L 1165.333 2359.083 L 1165.333 2381.167 L 1143.25 2381.167 L 1143.25 2359.083 Z  M 1174.167 2359.083 L 1196.25 2359.083 L 1196.25 2381.167 L 1174.167 2381.167 L 1174.167 2359.083 Z " fill="rgb(52,73,94)"/></svg>