<?xml version="1.0" encoding="UTF-8" standalone="no"?>
<!-- Generator: Gravit.io -->
<svg xmlns="http://www.w3.org/2000/svg" xmlns:xlink="http://www.w3.org/1999/xlink" style="isolation:isolate" viewBox="51.112 33.069 30.776 22.862" width="30.776pt" height="22.862pt"><path d=" M 53.978 51.534 L 79.022 51.534 C 80.604 51.534 81.888 52.519 81.888 53.733 L 81.888 53.733 C 81.888 54.946 80.604 55.931 79.022 55.931 L 53.978 55.931 C 52.396 55.931 51.112 54.946 51.112 53.733 L 51.112 53.733 C 51.112 52.519 52.396 51.534 53.978 51.534 L 53.978 51.534 Z  M 53.978 42.302 L 79.022 42.302 C 80.604 42.302 81.888 43.287 81.888 44.5 L 81.888 44.5 C 81.888 45.713 80.604 46.698 79.022 46.698 L 53.978 46.698 C 52.396 46.698 51.112 45.713 51.112 44.5 L 51.112 44.5 C 51.112 43.287 52.396 42.302 53.978 42.302 L 53.978 42.302 Z  M 53.978 33.069 L 79.022 33.069 C 80.604 33.069 81.888 34.054 81.888 35.267 L 81.888 35.267 C 81.888 36.481 80.604 37.466 79.022 37.466 L 53.978 37.466 C 52.396 37.466 51.112 36.481 51.112 35.267 L 51.112 35.267 C 51.112 34.054 52.396 33.069 53.978 33.069 Z " fill-rule="evenodd" fill="rgb(250,250,250)"/></svg>