<?xml version="1.0" encoding="UTF-8" standalone="no"?>
<!-- Generator: Gravit.io -->
<svg xmlns="http://www.w3.org/2000/svg" xmlns:xlink="http://www.w3.org/1999/xlink" style="isolation:isolate" viewBox="45.627 467.313 31.755 30.374" width="31.755pt" height="30.374pt"><path d=" M 47.698 467.313 C 46.558 467.313 45.627 468.243 45.627 469.384 L 45.627 483.19 C 45.625 483.74 45.842 484.268 46.231 484.657 C 46.62 485.046 47.148 485.264 47.698 485.261 L 50.503 485.261 C 53.126 483.247 56.971 481.119 61.505 481.119 C 66.043 481.119 69.885 483.244 72.507 485.261 L 75.311 485.261 C 76.452 485.261 77.382 484.331 77.382 483.19 L 77.382 469.384 C 77.382 468.243 76.452 467.313 75.311 467.313 L 47.698 467.313 Z  M 52.53 474.216 C 53.271 474.216 53.954 474.611 54.324 475.253 C 54.694 475.894 54.694 476.683 54.324 477.324 C 53.953 477.965 53.269 478.36 52.529 478.359 C 51.385 478.359 50.458 477.431 50.458 476.287 C 50.458 475.143 51.386 474.216 52.53 474.216 L 52.53 474.216 Z  M 61.505 474.216 C 62.245 474.216 62.929 474.611 63.298 475.253 C 63.668 475.894 63.668 476.683 63.298 477.324 C 62.927 477.965 62.243 478.36 61.503 478.359 C 60.359 478.359 59.432 477.431 59.432 476.287 C 59.433 475.143 60.361 474.216 61.505 474.216 L 61.505 474.216 Z  M 70.479 474.216 C 71.219 474.216 71.903 474.611 72.273 475.253 C 72.642 475.894 72.642 476.683 72.272 477.324 C 71.902 477.965 71.218 478.36 70.477 478.359 C 69.333 478.359 68.406 477.431 68.407 476.287 C 68.407 475.143 69.335 474.216 70.479 474.216 L 70.479 474.216 Z  M 61.505 482.5 C 53.714 482.5 48.084 489.371 47.849 489.662 C 47.655 489.906 47.646 490.25 47.827 490.504 C 48.038 490.798 53.048 497.687 61.505 497.687 C 69.961 497.687 74.974 490.798 75.182 490.504 C 75.362 490.252 75.355 489.905 75.16 489.662 C 74.925 489.371 69.295 482.5 61.505 482.5 Z  M 61.505 483.881 C 64.938 483.881 67.718 486.661 67.718 490.094 C 67.718 493.527 64.938 496.306 61.505 496.306 C 58.072 496.306 55.292 493.527 55.292 490.094 C 55.292 486.661 58.072 483.881 61.505 483.881 Z  M 61.505 486.642 C 59.598 486.642 58.053 488.187 58.053 490.094 C 58.053 492 59.598 493.545 61.505 493.545 C 63.411 493.545 64.956 492 64.956 490.094 C 64.954 489.673 64.874 489.256 64.719 488.864 C 64.453 489.272 63.997 489.516 63.511 489.511 C 63.132 489.514 62.769 489.364 62.501 489.097 C 62.234 488.829 62.085 488.466 62.087 488.087 C 62.087 487.58 62.338 487.135 62.734 486.879 C 62.343 486.725 61.926 486.644 61.505 486.642 Z " fill="rgb(250,250,250)"/></svg>