<?xml version="1.0" encoding="UTF-8" standalone="no"?>
<!-- Generator: Gravit.io -->
<svg xmlns="http://www.w3.org/2000/svg" xmlns:xlink="http://www.w3.org/1999/xlink" style="isolation:isolate" viewBox="45.106 371.754 32.276 29.679" width="32.276pt" height="29.679pt"><path d=" M 61.247 371.754 C 55.79 371.754 51.354 376.19 51.354 381.647 C 51.354 384.235 52.802 386.171 54.202 388.042 C 55.328 389.543 56.384 390.975 56.561 392.602 L 56.561 396.226 C 56.561 398.059 57.921 399.577 59.685 399.831 L 59.685 400.392 C 59.685 400.966 60.153 401.433 60.726 401.433 L 61.768 401.433 C 62.342 401.433 62.809 400.966 62.809 400.392 L 62.809 399.831 C 64.573 399.577 65.933 398.059 65.933 396.226 L 65.933 393.07 C 65.933 391.377 66.917 389.925 68.032 388.422 L 68.063 388.54 C 68.12 388.776 68.329 388.937 68.569 388.937 L 70.579 388.937 C 70.817 388.937 71.027 388.776 71.083 388.54 L 71.577 386.567 C 71.718 386.515 71.858 386.458 72.004 386.39 L 73.75 387.438 C 73.954 387.563 74.217 387.53 74.384 387.359 L 75.805 385.937 C 75.974 385.769 76.007 385.506 75.884 385.302 L 74.836 383.559 C 74.905 383.417 74.962 383.273 75.013 383.13 L 76.987 382.638 C 77.22 382.58 77.383 382.371 77.382 382.131 L 77.382 380.122 C 77.382 379.882 77.222 379.674 76.987 379.616 L 75.013 379.123 C 74.962 378.977 74.903 378.834 74.836 378.694 L 75.883 376.951 C 76.006 376.747 75.974 376.485 75.806 376.316 L 74.384 374.895 C 74.218 374.723 73.953 374.69 73.749 374.817 L 72.005 375.863 C 71.865 375.799 71.722 375.74 71.577 375.686 L 71.083 373.711 C 71.026 373.479 70.818 373.316 70.579 373.316 L 68.569 373.316 C 68.33 373.315 68.12 373.478 68.063 373.711 L 67.907 374.337 C 66.088 372.674 63.712 371.753 61.247 371.754 L 61.247 371.754 Z  M 61.247 372.796 C 63.746 372.796 66.006 373.837 67.609 375.513 L 67.569 375.686 C 67.428 375.739 67.282 375.795 67.142 375.863 L 65.396 374.817 C 65.193 374.69 64.929 374.722 64.762 374.894 L 63.34 376.316 C 63.169 376.483 63.136 376.747 63.263 376.951 L 64.308 378.694 C 64.241 378.837 64.184 378.98 64.131 379.123 L 62.158 379.616 C 61.925 379.673 61.761 379.882 61.762 380.122 L 61.762 382.131 C 61.762 382.371 61.925 382.579 62.158 382.638 L 64.132 383.13 C 64.184 383.272 64.241 383.417 64.308 383.559 L 63.262 385.302 C 63.136 385.506 63.169 385.769 63.34 385.937 L 64.761 387.358 C 64.928 387.53 65.192 387.564 65.396 387.438 L 67.141 386.39 C 67.281 386.458 67.428 386.515 67.568 386.567 L 67.704 387.114 C 67.625 387.219 67.552 387.318 67.474 387.422 C 66.309 388.99 65.105 390.608 64.912 392.549 L 61.768 392.549 L 61.768 391.02 C 61.768 390.732 61.535 390.499 61.247 390.499 C 60.96 390.499 60.726 390.732 60.726 391.02 L 60.726 392.549 L 57.613 392.549 C 57.425 390.609 56.213 388.99 55.035 387.415 C 53.74 385.683 52.395 383.89 52.395 381.647 C 52.395 376.768 56.368 372.796 61.247 372.796 Z  M 61.176 374.358 C 59.784 374.368 58.426 374.777 57.245 375.554 C 57.129 375.629 57.049 375.748 57.021 375.883 C 56.994 376.018 57.021 376.159 57.098 376.274 C 57.193 376.421 57.356 376.509 57.531 376.508 C 57.633 376.509 57.733 376.479 57.818 376.422 C 59.164 375.536 60.802 375.207 62.386 375.503 C 62.522 375.528 62.662 375.498 62.775 375.419 C 62.889 375.341 62.966 375.22 62.99 375.084 C 63.015 374.949 62.986 374.809 62.907 374.695 C 62.829 374.582 62.709 374.504 62.573 374.48 C 62.113 374.394 61.644 374.353 61.176 374.358 Z  M 68.974 374.358 L 70.172 374.358 L 70.636 376.213 C 70.676 376.39 70.813 376.528 70.983 376.581 C 71.26 376.669 71.528 376.78 71.785 376.914 C 71.941 377.004 72.141 376.993 72.296 376.904 L 73.937 375.913 L 74.779 376.764 L 73.795 378.403 C 73.701 378.56 73.697 378.754 73.784 378.914 C 73.919 379.171 74.03 379.439 74.117 379.716 C 74.171 379.889 74.312 380.022 74.488 380.064 L 76.341 380.527 L 76.341 381.726 L 74.488 382.188 C 74.312 382.231 74.171 382.364 74.118 382.538 C 74.03 382.814 73.919 383.083 73.785 383.339 C 73.697 383.499 73.701 383.693 73.795 383.85 L 74.779 385.489 L 73.937 386.34 L 72.296 385.349 C 72.14 385.254 71.945 385.25 71.785 385.338 C 71.528 385.472 71.26 385.584 70.983 385.672 C 70.81 385.724 70.678 385.865 70.636 386.04 L 70.172 387.895 L 68.974 387.895 L 68.511 386.04 C 68.504 386.03 68.506 386.016 68.496 386.006 C 68.447 385.844 68.319 385.719 68.157 385.673 C 67.896 385.589 67.625 385.475 67.359 385.339 C 67.199 385.253 67.006 385.257 66.851 385.349 L 65.209 386.34 L 64.361 385.489 L 65.345 383.85 C 65.439 383.694 65.443 383.5 65.362 383.339 C 65.225 383.084 65.113 382.815 65.028 382.538 C 64.975 382.364 64.834 382.232 64.658 382.189 L 62.803 381.726 L 62.803 380.527 L 64.658 380.065 C 64.834 380.022 64.975 379.889 65.028 379.715 C 65.113 379.438 65.225 379.169 65.362 378.914 C 65.443 378.753 65.439 378.56 65.346 378.403 L 64.361 376.763 L 65.21 375.913 L 66.851 376.904 C 67.005 376.993 67.199 376.998 67.359 376.914 C 67.615 376.782 67.882 376.67 68.157 376.58 C 68.25 376.554 68.334 376.497 68.386 376.429 C 68.447 376.37 68.49 376.295 68.511 376.212 L 68.761 375.217 L 68.974 374.358 Z  M 47.721 375.666 C 47.512 375.67 47.325 375.798 47.245 375.991 C 47.139 376.258 47.268 376.56 47.534 376.668 L 49.467 377.449 C 49.528 377.475 49.595 377.488 49.662 377.488 C 49.911 377.488 50.126 377.31 50.173 377.065 C 50.22 376.82 50.087 376.576 49.855 376.483 L 47.925 375.702 C 47.86 375.676 47.791 375.664 47.722 375.666 L 47.721 375.666 Z  M 69.572 378.523 C 68.136 378.525 66.973 379.691 66.975 381.127 C 66.975 382.563 68.136 383.73 69.572 383.73 C 71.008 383.73 72.175 382.563 72.175 381.127 C 72.175 379.691 71.008 378.523 69.572 378.523 Z  M 69.572 379.565 C 70.433 379.565 71.134 380.266 71.134 381.127 C 71.134 381.987 70.435 382.689 69.572 382.689 C 68.712 382.689 68.01 381.987 68.01 381.127 C 68.01 380.266 68.712 379.565 69.572 379.565 Z  M 45.627 381.127 C 45.339 381.127 45.106 381.36 45.106 381.647 C 45.106 381.935 45.339 382.168 45.627 382.168 L 48.751 382.168 C 49.038 382.168 49.271 381.935 49.271 381.647 C 49.271 381.36 49.038 381.127 48.751 381.127 L 45.627 381.127 Z  M 59.164 383.209 C 58.954 383.209 58.764 383.336 58.683 383.531 C 58.603 383.725 58.647 383.949 58.796 384.098 L 59.838 385.139 C 59.939 385.241 60.072 385.292 60.206 385.292 C 60.416 385.292 60.606 385.165 60.687 384.971 C 60.767 384.776 60.723 384.552 60.574 384.403 L 59.532 383.362 C 59.435 383.264 59.302 383.209 59.164 383.209 Z  M 62.286 384.253 C 62.152 384.253 62.02 384.304 61.917 384.405 L 60.879 385.445 C 60.781 385.542 60.726 385.675 60.726 385.813 L 60.726 388.937 C 60.726 389.224 60.96 389.458 61.247 389.458 C 61.535 389.458 61.768 389.224 61.768 388.937 L 61.768 386.028 L 62.655 385.143 C 62.802 384.994 62.846 384.77 62.766 384.576 C 62.686 384.381 62.497 384.254 62.286 384.253 Z  M 49.668 385.809 C 49.599 385.807 49.531 385.819 49.467 385.845 L 47.535 386.626 C 47.268 386.732 47.14 387.037 47.245 387.303 C 47.354 387.57 47.657 387.7 47.925 387.592 L 49.855 386.811 C 50.122 386.704 50.252 386.4 50.144 386.132 C 50.064 385.939 49.877 385.812 49.668 385.809 L 49.668 385.809 Z  M 57.602 393.623 L 64.892 393.623 L 64.892 394.205 L 57.602 395.116 L 57.602 393.623 Z  M 64.892 395.254 L 64.892 396.226 C 64.892 396.247 64.886 396.267 64.886 396.289 L 59.598 396.951 C 59.461 396.967 59.337 397.038 59.252 397.147 C 59.168 397.256 59.13 397.394 59.148 397.53 C 59.18 397.79 59.401 397.986 59.663 397.986 C 59.683 397.986 59.705 397.986 59.728 397.982 L 64.615 397.371 C 64.19 398.232 63.312 398.83 62.288 398.83 L 60.206 398.83 C 58.77 398.83 57.602 397.662 57.602 396.226 L 57.602 396.166 L 64.892 395.254 Z  M 60.726 399.871 L 61.768 399.871 L 61.768 400.392 L 60.726 400.392 L 60.726 399.871 Z " fill="rgb(250,250,250)"/></svg>