<?xml version="1.0" encoding="UTF-8" standalone="no"?>
<!-- Generator: Gravit.io -->
<svg xmlns="http://www.w3.org/2000/svg" xmlns:xlink="http://www.w3.org/1999/xlink" style="isolation:isolate" viewBox="48.394 143.369 28.988 31.887" width="28.988pt" height="31.887pt"><path d=" M 62.888 143.369 C 58.099 143.369 54.191 147.277 54.191 152.065 C 54.191 156.854 58.099 160.762 62.888 160.762 C 67.677 160.762 71.584 156.854 71.584 152.065 C 71.584 147.277 67.677 143.369 62.888 143.369 Z  M 62.888 160.762 C 54.89 160.778 48.41 167.258 48.394 175.256 L 51.293 175.256 C 51.293 171.111 53.467 167.522 56.716 165.473 L 62.888 172.357 L 69.06 165.473 C 72.434 167.58 74.484 171.278 74.483 175.256 L 77.382 175.256 C 77.382 167.273 70.871 160.762 62.888 160.762 Z  M 62.888 146.268 C 66.106 146.268 68.686 148.848 68.686 152.065 C 68.686 155.283 66.106 157.863 62.888 157.863 C 59.67 157.863 57.09 155.283 57.09 152.065 C 57.09 148.848 59.67 146.268 62.888 146.268 Z  M 62.888 163.661 C 64.076 163.661 65.198 163.887 66.285 164.226 L 62.888 168.009 L 59.49 164.226 C 60.587 163.865 61.733 163.675 62.888 163.661 Z " fill="rgb(250,250,250)"/></svg>