<?xml version="1.0" encoding="UTF-8" standalone="no"?>
<!-- Generator: Gravit.io -->
<svg xmlns="http://www.w3.org/2000/svg" xmlns:xlink="http://www.w3.org/1999/xlink" style="isolation:isolate" viewBox="808 283 24 24" width="24pt" height="24pt"><path d=" M 813 283 L 813 287 L 815 287 L 815 283 L 813 283 Z  M 825 283 L 825 287 L 827 287 L 827 283 L 825 283 Z  M 809 286 C 808.45 286 808 286.45 808 287 L 808 290 C 808 290.55 808.45 291 809 291 L 809 307 L 831 307 L 831 291 C 831.55 291 832 290.55 832 290 L 832 287 C 832 286.45 831.55 286 831 286 L 828 286 L 828 288 L 824 288 L 824 286 L 816 286 L 816 288 L 812 288 L 812 286 L 809 286 Z  M 811 291 L 829 291 L 829 305 L 811 305 L 811 291 Z  M 813 293 L 813 295 L 815 295 L 815 293 L 813 293 Z  M 817 293 L 817 295 L 819 295 L 819 293 L 817 293 Z  M 821 293 L 821 295 L 823 295 L 823 293 L 821 293 Z  M 825 293 L 825 295 L 827 295 L 827 293 L 825 293 Z  M 813 297 L 813 299 L 815 299 L 815 297 L 813 297 Z  M 817 297 L 817 299 L 819 299 L 819 297 L 817 297 Z  M 821 297 L 821 299 L 823 299 L 823 297 L 821 297 Z  M 825 297 L 825 299 L 827 299 L 827 297 L 825 297 Z  M 813 301 L 813 303 L 815 303 L 815 301 L 813 301 Z  M 817 301 L 817 303 L 819 303 L 819 301 L 817 301 Z  M 821 301 L 821 303 L 823 303 L 823 301 L 821 301 Z  M 825 301 L 825 303 L 827 303 L 827 301 L 825 301 Z " fill="rgb(127,140,141)"/></svg>