<?xml version="1.0" encoding="UTF-8" standalone="no"?>
<!-- Generator: Gravit.io -->
<svg xmlns="http://www.w3.org/2000/svg" xmlns:xlink="http://www.w3.org/1999/xlink" style="isolation:isolate" viewBox="1332.846 195.823 30.965 32.355" width="30.965pt" height="32.355pt"><path d=" M 1333.418 195.823 C 1333.081 195.887 1332.84 196.184 1332.846 196.526 L 1332.846 198.638 C 1332.847 198.818 1332.918 198.992 1333.043 199.122 L 1344.105 210.864 L 1344.105 223.267 C 1344.11 223.512 1344.245 223.737 1344.457 223.861 L 1351.494 228.083 C 1351.709 228.207 1351.974 228.209 1352.191 228.087 C 1352.407 227.965 1352.544 227.738 1352.549 227.489 L 1352.549 210.864 L 1363.501 199.231 L 1363.522 199.209 L 1363.61 199.121 C 1363.644 199.088 1363.673 199.051 1363.698 199.011 C 1363.714 198.998 1363.729 198.983 1363.742 198.968 C 1363.784 198.876 1363.805 198.78 1363.808 198.681 L 1363.808 198.638 C 1363.811 198.602 1363.811 198.564 1363.808 198.528 L 1363.808 196.526 C 1363.808 196.139 1363.492 195.823 1363.104 195.823 L 1333.417 195.823 L 1333.418 195.823 Z  M 1334.253 197.23 L 1362.401 197.23 L 1362.401 198.374 L 1351.537 209.897 L 1345.116 209.897 L 1342.326 206.937 L 1334.253 198.374 L 1334.253 197.23 Z  M 1345.512 211.304 L 1351.142 211.304 L 1351.142 226.258 L 1345.512 222.893 L 1345.512 211.304 Z " fill="rgb(127,140,141)"/></svg>