<?xml version="1.0" encoding="UTF-8" standalone="no"?>
<!-- Generator: Gravit.io -->
<svg xmlns="http://www.w3.org/2000/svg" xmlns:xlink="http://www.w3.org/1999/xlink" style="isolation:isolate" viewBox="48.394 790.031 31.334 31.313" width="31.334pt" height="31.313pt"><g><path d=" M 79.727 805.745 C 79.727 814.347 72.699 821.344 64.061 821.344 C 55.422 821.344 48.394 814.347 48.394 805.745 C 48.394 801.406 50.229 797.224 53.427 794.271 C 53.958 793.792 54.776 793.829 55.262 794.355 C 55.747 794.881 55.719 795.699 55.198 796.19 C 52.494 798.686 51.005 802.079 51.005 805.745 C 51.005 812.907 56.862 818.733 64.061 818.733 C 71.259 818.733 77.116 812.907 77.116 805.745 C 77.116 802.101 75.641 798.721 72.963 796.227 C 72.458 795.731 72.44 794.923 72.922 794.406 C 73.404 793.888 74.211 793.848 74.742 794.316 C 77.957 797.31 79.727 801.368 79.727 805.745 Z " fill="rgb(250,250,250)"/><path d=" M 65.366 805.677 C 65.366 806.398 64.782 806.982 64.061 806.982 C 63.339 806.982 62.755 806.398 62.755 805.677 L 62.755 794.488 L 60.414 796.829 C 60.086 797.168 59.601 797.305 59.144 797.185 C 58.688 797.066 58.331 796.709 58.212 796.253 C 58.092 795.796 58.229 795.311 58.568 794.983 L 63.137 790.414 C 63.647 789.904 64.474 789.904 64.984 790.414 L 69.553 794.983 C 69.808 795.238 69.936 795.572 69.936 795.906 C 69.936 796.24 69.808 796.574 69.553 796.829 C 69.043 797.339 68.217 797.339 67.707 796.829 L 65.366 794.488 L 65.366 805.677 Z " fill="rgb(250,250,250)"/></g></svg>