<?xml version="1.0" encoding="UTF-8" standalone="no"?>
<!-- Generator: Gravit.io -->
<svg xmlns="http://www.w3.org/2000/svg" xmlns:xlink="http://www.w3.org/1999/xlink" style="isolation:isolate" viewBox="1123 283 26 26" width="26pt" height="26pt"><path d=" M 1136 283 C 1128.832 283 1123 288.832 1123 296 C 1123 303.168 1128.832 309 1136 309 C 1143.168 309 1149 303.168 1149 296 L 1147 296 C 1147 302.086 1142.086 307 1136 307 C 1129.914 307 1125 302.086 1125 296 C 1125 289.914 1129.914 285 1136 285 C 1139.875 285 1143.262 286.984 1145.219 290 L 1140 290 L 1140 292 L 1148 292 L 1148 284 L 1146 284 L 1146 287.719 C 1143.617 284.844 1140.02 283 1136 283 Z " fill="rgb(127,140,141)"/></svg>