<?xml version="1.0" encoding="UTF-8" standalone="no"?>
<!-- Generator: Gravit.io -->
<svg xmlns="http://www.w3.org/2000/svg" xmlns:xlink="http://www.w3.org/1999/xlink" style="isolation:isolate" viewBox="91.813 198.14 25.719 25.72" width="25.719pt" height="25.72pt"><path d=" M 101.813 198.14 C 107.325 198.14 111.813 202.628 111.813 208.14 C 111.813 210.535 110.973 212.73 109.563 214.453 L 117.532 222.42 L 116.093 223.86 L 108.125 215.891 C 106.345 217.35 104.114 218.145 101.813 218.14 C 96.301 218.14 91.813 213.652 91.813 208.14 C 91.813 202.628 96.301 198.14 101.813 198.14 Z  M 101.813 200.14 C 97.383 200.14 93.813 203.71 93.813 208.14 C 93.813 212.57 97.383 216.14 101.813 216.14 C 106.243 216.14 109.813 212.57 109.813 208.14 C 109.813 203.71 106.243 200.14 101.813 200.14 Z " fill="rgb(127,140,141)"/></svg>