<?xml version="1.0" encoding="UTF-8" standalone="no"?>
<!-- Generator: Gravit.io -->
<svg xmlns="http://www.w3.org/2000/svg" xmlns:xlink="http://www.w3.org/1999/xlink" style="isolation:isolate" viewBox="616.551 221.965 44.849 32.035" width="44.849pt" height="32.035pt"><path d=" M 638.976 221.965 C 634.734 221.965 631.047 223.948 628.414 226.871 C 628.196 226.844 628 226.77 627.763 226.77 C 624.239 226.77 621.356 229.653 621.356 233.177 C 618.585 234.867 616.551 237.72 616.551 241.186 C 616.551 246.472 620.876 250.797 626.162 250.797 L 634.17 250.797 L 634.17 247.593 L 626.162 247.593 C 622.607 247.593 619.755 244.74 619.755 241.186 C 619.754 238.612 621.291 236.287 623.66 235.279 L 624.76 234.83 L 624.609 233.629 C 624.589 233.479 624.572 233.328 624.56 233.177 C 624.553 232.194 625.002 231.262 625.775 230.655 C 626.549 230.047 627.561 229.833 628.514 230.073 L 629.516 230.325 L 630.116 229.524 C 632.238 226.782 635.508 225.174 638.976 225.169 C 644.224 225.169 648.605 228.779 649.837 233.627 L 650.138 234.878 L 651.488 234.83 C 651.826 234.811 651.902 234.779 651.79 234.779 C 655.344 234.779 658.197 237.632 658.197 241.186 C 658.197 244.74 655.344 247.593 651.79 247.593 L 643.781 247.593 L 643.781 250.797 L 651.79 250.797 C 657.075 250.797 661.4 246.472 661.4 241.186 C 661.4 236.131 657.415 232.082 652.44 231.726 C 650.482 226.088 645.264 221.965 638.976 221.965 Z  M 638.976 234.779 L 632.569 241.186 L 637.374 241.186 L 637.374 254 L 640.577 254 L 640.577 241.186 L 645.383 241.186 L 638.976 234.779 Z " fill="rgb(250,250,250)"/></svg>