<?xml version="1.0" encoding="UTF-8" standalone="no"?>
<!-- Generator: Gravit.io -->
<svg xmlns="http://www.w3.org/2000/svg" xmlns:xlink="http://www.w3.org/1999/xlink" style="isolation:isolate" viewBox="613.767 154.251 32 32" width="32pt" height="32pt"><path d=" M 641.351 154.251 C 640.526 154.257 639.737 154.593 639.16 155.185 L 627.671 166.861 L 625.96 174.055 L 633.154 172.344 L 633.406 172.113 L 644.84 160.86 C 645.43 160.278 645.763 159.485 645.767 158.657 C 645.77 157.828 645.444 157.033 644.86 156.445 L 643.57 155.145 C 642.981 154.56 642.18 154.237 641.349 154.251 L 641.351 154.251 Z  M 641.371 156.694 C 641.534 156.694 641.699 156.76 641.832 156.896 L 643.122 158.186 C 643.393 158.445 643.393 158.839 643.122 159.109 L 631.926 170.111 L 629.271 170.746 L 629.907 168.092 L 640.918 156.896 C 641.034 156.768 641.198 156.695 641.371 156.694 Z  M 618.691 156.704 C 615.971 156.704 613.767 158.909 613.767 161.628 L 613.767 181.326 C 613.767 184.046 615.971 186.251 618.691 186.251 L 638.389 186.251 C 641.109 186.251 643.314 184.046 643.314 181.326 L 643.314 165.822 L 640.852 168.244 L 640.852 181.326 C 640.852 182.681 639.744 183.789 638.389 183.789 L 618.691 183.789 C 617.337 183.789 616.229 182.681 616.229 181.326 L 616.229 161.628 C 616.229 160.274 617.337 159.166 618.691 159.166 L 631.79 159.166 L 634.216 156.704 L 618.691 156.704 Z " fill="rgb(250,250,250)"/></svg>